HIERARCHY
ROOT Hips
{
	OFFSET 55.640301 10.169885 95.450699
	CHANNELS 6 Xposition Yposition Zposition Xrotation Yrotation Zrotation
	JOINT spine
	{
		OFFSET 0.000000 -0.458069 7.965683
		CHANNELS 3 Xrotation Yrotation Zrotation
		JOINT spine1
		{
			OFFSET 0.000000 -0.000001 10.243103
			CHANNELS 3 Xrotation Yrotation Zrotation
			JOINT spine2
			{
				OFFSET 0.000000 -0.000002 9.814751
				CHANNELS 3 Xrotation Yrotation Zrotation
				JOINT Neck
				{
					OFFSET 0.000000 -1.201384 25.198601
					CHANNELS 3 Xrotation Yrotation Zrotation
					JOINT Head
					{
						OFFSET 0.000000 -0.000002 7.613144
						CHANNELS 3 Xrotation Yrotation Zrotation
						End Site
						{
							OFFSET 0.000000 6.077328 18.428101
						}
					}
				}
				JOINT RightShoulder
				{
					OFFSET -4.132702 0.575449 10.599205
					CHANNELS 3 Xrotation Yrotation Zrotation
					JOINT RightArm
					{
						OFFSET 0.000000 -0.000002 13.901794
						CHANNELS 3 Xrotation Yrotation Zrotation
						JOINT RightArmRoll
						{
							OFFSET 0.000000 -0.000001 7.017883
							CHANNELS 3 Xrotation Yrotation Zrotation
							JOINT RightForeArm
							{
								OFFSET 0.000000 -0.000004 20.440598
								CHANNELS 3 Xrotation Yrotation Zrotation
								JOINT RightForeArmRoll
								{
									OFFSET 0.000000 -0.000001 7.875153
									CHANNELS 3 Xrotation Yrotation Zrotation
									JOINT RightHand
									{
										OFFSET 0.000000 -0.000003 15.803696
										CHANNELS 3 Xrotation Yrotation Zrotation
										End Site
										{
											OFFSET 0.000000 0.000000 0.100006
										}
									}
								}
							}
						}
					}
				}
				JOINT LeftShoulder
				{
					OFFSET 4.132702 0.575449 10.599205
					CHANNELS 3 Xrotation Yrotation Zrotation
					JOINT LeftArm
					{
						OFFSET 0.000000 -0.000002 13.901794
						CHANNELS 3 Xrotation Yrotation Zrotation
						JOINT LeftArmRoll
						{
							OFFSET 0.000000 -0.000001 7.017883
							CHANNELS 3 Xrotation Yrotation Zrotation
							JOINT LeftForeArm
							{
								OFFSET 0.000000 -0.000004 20.440598
								CHANNELS 3 Xrotation Yrotation Zrotation
								JOINT LeftForeArmRoll
								{
									OFFSET 0.000000 -0.000001 7.875153
									CHANNELS 3 Xrotation Yrotation Zrotation
									JOINT LeftHand
									{
										OFFSET 0.000000 -0.000003 15.803696
										CHANNELS 3 Xrotation Yrotation Zrotation
										End Site
										{
											OFFSET 0.000000 0.000000 0.100006
										}
									}
								}
							}
						}
					}
				}
			}
		}
	}
	JOINT RightUpLeg
	{
		OFFSET -7.060482 1.086090 -1.294701
		CHANNELS 3 Xrotation Yrotation Zrotation
		JOINT RightUpLegRoll
		{
			OFFSET 0.000000 -0.000003 18.530800
			CHANNELS 3 Xrotation Yrotation Zrotation
			JOINT RightLeg
			{
				OFFSET 0.000000 0.000004 -22.947601
				CHANNELS 3 Xrotation Yrotation Zrotation
				JOINT RightLegRoll
				{
					OFFSET 0.000000 -0.000004 23.022598
					CHANNELS 3 Xrotation Yrotation Zrotation
					JOINT RightFoot
					{
						OFFSET 0.000000 -0.000004 19.162506
						CHANNELS 3 Xrotation Yrotation Zrotation
						JOINT RightToeBase
						{
							OFFSET 0.000000 -0.000002 16.018799
							CHANNELS 3 Xrotation Yrotation Zrotation
							End Site
							{
								OFFSET 0.006790 0.894205 7.757828
							}
						}
					}
				}
			}
		}
	}
	JOINT LeftUpLeg
	{
		OFFSET 7.060482 1.086090 -1.294701
		CHANNELS 3 Xrotation Yrotation Zrotation
		JOINT LeftUpLegRoll
		{
			OFFSET 0.000000 -0.000003 18.530899
			CHANNELS 3 Xrotation Yrotation Zrotation
			JOINT LeftLeg
			{
				OFFSET 0.000000 -0.000004 22.947502
				CHANNELS 3 Xrotation Yrotation Zrotation
				JOINT LeftLegRoll
				{
					OFFSET 0.000000 -0.000004 23.235504
					CHANNELS 3 Xrotation Yrotation Zrotation
					JOINT LeftFoot
					{
						OFFSET 0.000000 -0.000003 18.949600
						CHANNELS 3 Xrotation Yrotation Zrotation
						JOINT LeftToeBase
						{
							OFFSET 0.000000 -0.000003 16.018799
							CHANNELS 3 Xrotation Yrotation Zrotation
							End Site
							{
								OFFSET -0.030430 0.894205 7.757828
							}
						}
					}
				}
			}
		}
	}
}
MOTION
Frames: 11
Frame Time: 0.041667
45.157703 -4.908459 119.056984 2.004414 -0.796550 -1.508193 0.166190 -0.322401 -0.297102 4.333609 -0.648582 -0.590058 5.978693 -0.655603 -0.582248 -38.437415 19.610629 2.645711 27.705252 -15.694888 -2.340047 -12.038360 -62.177090 -14.361994 -17.089639 -105.579555 -29.584575 -0.000002 0.000004 0.000001 51.377629 -11.823823 3.567022 0.000001 0.000008 -3.000001 -5.000181 -7.999282 0.000090 -9.231229 55.800023 10.691004 -14.875249 115.395486 31.381943 -0.000000 -0.000001 -0.000000 44.049905 14.218520 -3.963304 0.000005 -0.000007 3.000000 -5.000215 7.999261 -0.000096 -6.853753 -175.573728 2.051210 -179.999991 0.000005 -1.168995 165.128019 -0.186537 -0.805537 -0.000006 0.000002 0.096503 67.226977 6.931077 2.142088 25.456957 -7.355614 0.000000 -9.868201 173.572688 -1.119484 -0.000020 -0.000004 -1.061400 -18.299959 1.507546 0.724993 -0.000001 -0.000003 -0.283210 69.515090 -6.880222 -2.119358 25.456959 7.355612 -0.000002 
45.193295 -4.841057 119.191994 2.046135 -0.769880 -1.511446 0.173248 -0.324048 -0.299305 4.347702 -0.652198 -0.594486 5.992788 -0.659273 -0.586631 -38.427372 19.447796 2.572630 27.583567 -15.610430 -2.368730 -12.149979 -62.373383 -14.500427 -17.847189 -105.397155 -30.398679 -0.000002 0.000004 0.000001 51.414085 -11.850972 3.584261 -0.000004 0.000007 -3.000001 -5.000176 -7.999281 0.000089 -9.250642 55.739968 10.710078 -14.998105 115.415334 31.517945 -0.000000 -0.000001 -0.000001 44.004149 14.234293 -3.966807 0.000001 -0.000007 2.999999 -5.000217 7.999265 -0.000097 -6.994887 -175.606827 2.025825 -179.999991 0.000005 -1.167999 164.906516 -0.179578 -0.813436 -0.000007 0.000002 0.100275 67.232325 6.931099 2.141755 25.456952 -7.355617 0.000001 -10.006921 173.531065 -1.133719 -0.000020 -0.000004 -1.061570 -18.513708 1.503732 0.733752 -0.000001 -0.000003 -0.287164 69.524899 -6.880492 -2.118399 25.456952 7.355614 -0.000002 
45.194099 -4.808721 119.321991 2.086990 -0.743605 -1.514543 0.180602 -0.325260 -0.301748 4.362395 -0.655013 -0.599367 6.007474 -0.662145 -0.591478 -38.414271 19.285606 2.500496 27.459688 -15.529735 -2.395318 -12.260180 -62.574088 -14.637048 -18.654619 -105.216059 -31.256250 -0.000001 0.000004 0.000001 51.442693 -11.878661 3.601112 -0.000000 0.000008 -3.000001 -5.000176 -7.999280 0.000090 -9.264807 55.682721 10.723120 -15.129747 115.432150 31.656810 -0.000000 0.000001 -0.000003 43.956427 14.249001 -3.969645 0.000002 -0.000007 3.000000 -5.000214 7.999263 -0.000095 -7.135291 -175.642877 1.998568 -179.999991 0.000005 -1.167998 164.683934 -0.170719 -0.820761 -0.000006 0.000002 0.103938 67.237359 6.931089 2.141535 25.456955 -7.355614 0.000000 -10.148229 173.488581 -1.147129 -0.000020 -0.000004 -1.061730 -18.732446 1.498655 0.742454 0.000001 -0.000004 -0.291262 69.536414 -6.880756 -2.117431 25.456955 7.355610 -0.000002 
45.209000 -4.747090 119.453995 2.127086 -0.717901 -1.517297 0.188198 -0.326089 -0.304380 4.377569 -0.657113 -0.604608 6.022647 -0.664307 -0.596694 -38.398094 19.124799 2.429361 27.334014 -15.452668 -2.420068 -12.369146 -62.777771 -14.771980 -19.505004 -105.040147 -32.150455 -0.000001 0.000004 0.000001 51.463891 -11.906540 3.617646 -0.000002 0.000008 -3.000000 -5.000180 -7.999281 0.000090 -9.273963 55.628568 10.730401 -15.269156 115.447860 31.797888 -0.000000 -0.000001 -0.000001 43.906201 14.262600 -3.971673 0.000005 -0.000007 2.999999 -5.000218 7.999262 -0.000098 -7.274545 -175.678927 1.969488 -179.999991 0.000005 -1.167999 164.461939 -0.158968 -0.828205 -0.000007 0.000002 0.107485 67.242072 6.931084 2.141338 25.456953 -7.355615 0.000001 -10.291480 173.445223 -1.159515 -0.000021 -0.000004 -1.061880 -18.954473 1.492485 0.751045 0.000000 -0.000003 -0.295465 69.549091 -6.881034 -2.116496 25.456957 7.355610 -0.000002 
45.235596 -4.708639 119.591995 2.166568 -0.692944 -1.519466 0.195986 -0.326587 -0.307155 4.393120 -0.658588 -0.610115 6.038198 -0.665848 -0.602183 -38.378771 18.965875 2.359082 27.206846 -15.379277 -2.443266 -12.476993 -62.982827 -14.905322 -20.395391 -104.869488 -33.078340 -0.000003 0.000003 0.000000 51.477719 -11.934410 3.633430 -0.000003 0.000007 -3.000000 -5.000178 -7.999284 0.000090 -9.278246 55.577495 10.732079 -15.416895 115.461534 31.941909 -0.000001 0.000000 -0.000000 43.853117 14.275333 -3.973048 0.000002 -0.000006 3.000000 -5.000218 7.999262 -0.000097 -7.412130 -175.715974 1.939155 -179.999991 0.000005 -1.167998 164.242144 -0.144362 -0.833730 -0.000008 0.000002 0.110904 67.246477 6.931122 2.140969 25.456955 -7.355615 0.000000 -10.435947 173.402958 -1.171071 -0.000021 -0.000004 -1.062030 -19.178099 1.485402 0.759479 -0.000001 -0.000004 -0.299731 69.562724 -6.881308 -2.115600 25.456953 7.355612 -0.000000 
45.228302 -4.697860 119.733994 2.205569 -0.668908 -1.520849 0.203911 -0.326805 -0.310024 4.408953 -0.659529 -0.615797 6.054032 -0.666858 -0.607853 -38.356167 18.809516 2.289709 27.078456 -15.309439 -2.465202 -12.583872 -63.187808 -15.037175 -21.319997 -104.705967 -34.034068 -0.000001 0.000004 0.000001 51.484617 -11.961911 3.648537 -0.000001 0.000008 -3.000000 -5.000183 -7.999281 0.000089 -9.277793 55.529605 10.728318 -15.571906 115.475153 32.088003 -0.000000 0.000000 -0.000001 43.796723 14.287127 -3.973641 0.000006 -0.000007 2.999998 -5.000217 7.999264 -0.000097 -7.547587 -175.752980 1.907832 -179.999991 0.000005 -1.167998 164.026365 -0.128829 -0.839884 -0.000005 0.000002 0.114184 67.250787 6.931110 2.140794 25.456960 -7.355614 0.000001 -10.581126 173.361771 -1.181596 -0.000020 -0.000004 -1.062170 -19.401711 1.477574 0.767709 -0.000001 -0.000003 -0.304022 69.576986 -6.881568 -2.114760 25.456948 7.355613 -0.000001 
45.219501 -4.648407 119.855988 2.244203 -0.645970 -1.521216 0.211917 -0.326795 -0.312939 4.424944 -0.660027 -0.621560 6.070024 -0.667424 -0.613609 -38.330421 18.656240 2.221224 26.949218 -15.242921 -2.486272 -12.689840 -63.391102 -15.167553 -22.270764 -104.552267 -35.009767 -0.000001 0.000004 0.000001 51.484737 -11.988947 3.662814 -0.000004 0.000008 -3.000001 -5.000179 -7.999282 0.000090 -9.272778 55.484970 10.719318 -15.735291 115.486792 32.237796 -0.000000 -0.000000 0.000001 43.736450 14.298268 -3.973554 0.000005 -0.000005 3.000001 -5.000217 7.999261 -0.000098 -7.680462 -175.788975 1.875819 -179.999991 0.000005 -1.167001 163.816159 -0.111402 -0.845338 -0.000006 0.000002 0.117318 67.254872 6.931113 2.140638 25.456952 -7.355615 0.000001 -10.726335 173.320667 -1.190725 -0.000020 -0.000004 -1.062310 -19.623617 1.469199 0.775699 -0.000001 -0.000003 -0.308297 69.591561 -6.881799 -2.113899 25.456952 7.355611 -0.000001 
45.227501 -4.588586 119.974976 2.282615 -0.624303 -1.520356 0.219954 -0.326607 -0.315853 4.440995 -0.660169 -0.627310 6.086075 -0.667635 -0.619357 -38.301365 18.506736 2.153677 26.819573 -15.179870 -2.506704 -12.795080 -63.591465 -15.296651 -23.243076 -104.408218 -36.000670 -0.000003 0.000004 0.000001 51.478425 -12.015176 3.676220 -0.000003 0.000008 -3.000001 -5.000175 -7.999282 0.000091 -9.263302 55.443589 10.705221 -15.905444 115.499373 32.389580 -0.000001 0.000001 -0.000002 43.672008 14.308812 -3.972843 0.000007 -0.000006 2.999998 -5.000215 7.999261 -0.000099 -7.810245 -175.824943 1.843663 -179.999991 0.000005 -1.167001 163.613179 -0.092100 -0.850089 -0.000006 0.000002 0.120293 67.258956 6.931116 2.140480 25.456957 -7.355617 0.000001 -10.871027 173.281612 -1.198654 -0.000019 -0.000004 -1.062440 -19.842116 1.460427 0.783398 0.000000 -0.000003 -0.312517 69.606048 -6.882092 -2.112951 25.456952 7.355613 -0.000000 
45.226200 -4.549870 120.099991 2.320940 -0.604079 -1.518047 0.227962 -0.326294 -0.318718 4.457007 -0.660045 -0.632954 6.102076 -0.667579 -0.625003 -38.268949 18.361649 2.087145 26.689753 -15.119884 -2.526898 -12.899574 -63.787164 -15.424389 -24.227337 -104.276307 -36.997086 -0.000001 0.000003 0.000001 51.465906 -12.040280 3.688383 -0.000003 0.000007 -3.000000 -5.000182 -7.999279 0.000091 -9.249592 55.405747 10.686260 -16.083480 115.510998 32.545022 -0.000000 -0.000000 0.000001 43.602869 14.318803 -3.971395 0.000006 -0.000007 2.999998 -5.000216 7.999263 -0.000099 -7.936498 -175.859900 1.811626 -179.999991 0.000005 -1.167001 163.419174 -0.073797 -0.854978 -0.000007 0.000002 0.123100 67.263054 6.931119 2.140222 25.456957 -7.355613 -0.000001 -11.014495 173.244579 -1.205216 -0.000020 -0.000004 -1.062570 -20.055611 1.451466 0.790784 -0.000001 -0.000003 -0.316641 69.620105 -6.882361 -2.112128 25.456957 7.355611 -0.000000 
45.244400 -4.536089 120.208000 2.359287 -0.585476 -1.514079 0.235892 -0.325906 -0.321483 4.472846 -0.659745 -0.638400 6.117926 -0.667343 -0.630451 -38.233070 18.221486 2.021477 26.560190 -15.063113 -2.547061 -13.003367 -63.976791 -15.550792 -25.216369 -104.157045 -37.991797 -0.000002 0.000005 0.000001 51.447440 -12.064054 3.699204 -0.000003 0.000007 -3.000000 -5.000183 -7.999282 0.000091 -9.231733 55.371435 10.662566 -16.268310 115.523620 32.703069 0.000001 -0.000001 -0.000000 43.528563 14.328484 -3.969368 0.000004 -0.000008 2.999998 -5.000218 7.999262 -0.000095 -8.058726 -175.892821 1.779977 -179.999991 0.000005 -1.167001 163.235784 -0.054577 -0.858434 -0.000008 0.000002 0.125728 67.267234 6.931095 2.140155 25.456950 -7.355616 0.000000 -11.156130 173.209540 -1.210246 -0.000021 -0.000003 -1.062690 -20.262506 1.442469 0.797817 0.000000 -0.000004 -0.320630 69.633526 -6.882634 -2.111245 25.456955 7.355612 -0.000002 
45.238300 -4.492147 120.322998 2.397787 -0.568662 -1.508219 0.243690 -0.325496 -0.324104 4.488427 -0.659357 -0.643552 6.133506 -0.667018 -0.635608 -38.193687 18.086973 1.956709 26.431140 -15.009351 -2.567565 -13.106511 -64.158890 -15.675907 -26.200621 -104.051744 -38.975197 -0.000001 0.000004 0.000001 51.423265 -12.086249 3.708799 -0.000005 0.000007 -3.000002 -5.000177 -7.999280 0.000091 -9.209901 55.340747 10.634307 -16.459858 115.537281 32.863896 -0.000000 0.000000 0.000001 43.448746 14.337761 -3.966622 0.000003 -0.000006 2.999999 -5.000217 7.999265 -0.000096 -8.176460 -175.923721 1.749132 -179.999991 0.000005 -1.166004 163.064701 -0.035396 -0.861774 -0.000008 0.000002 0.128167 67.271428 6.931107 2.139993 25.456955 -7.355613 0.000000 -11.295331 173.176482 -1.213577 -0.000020 -0.000003 -1.062810 -20.460991 1.433636 0.804472 -0.000001 -0.000003 -0.324443 69.645882 -6.882861 -2.110517 25.456952 7.355613 -0.000001 
